<?xml version="1.0" encoding="UTF-8"?>
<!DOCTYPE svg PUBLIC "-//W3C//DTD SVG 1.1//EN" "http://www.w3.org/Graphics/SVG/1.1/DTD/svg11.dtd">
<!-- Creator: CorelDRAW X7 -->
<svg xmlns="http://www.w3.org/2000/svg" xml:space="preserve" width="55.325mm" height="55.325mm" version="1.1" style="shape-rendering:geometricPrecision; text-rendering:geometricPrecision; image-rendering:optimizeQuality; fill-rule:evenodd; clip-rule:evenodd"
viewBox="0 0 19823 19823"
 xmlns:xlink="http://www.w3.org/1999/xlink">
 <defs>
  <style type="text/css">
   <![CDATA[
    .fil0 {fill:none}
    .fil1 {fill:black}
   ]]>
  </style>
 </defs>
 <g id="Слой_x0020_1">
  <metadata id="CorelCorpID_0Corel-Layer"/>
  <rect class="fil0" width="19823" height="19823"/>
  <path class="fil1" d="M2535 6106l14753 0 0 -1671c0,-593 -485,-1079 -1079,-1079l-1546 0 0 271c0,172 -141,312 -313,312l0 0c-172,0 -312,-140 -312,-312l0 -271 -1588 0 0 271c0,172 -141,312 -313,312l0 0c-172,0 -312,-140 -312,-312l0 -271 -1589 0 0 271c0,172 -140,312 -312,312l0 0c-172,0 -313,-140 -313,-312l0 -271 -1588 0 0 271c0,172 -141,312 -312,312l0 0c-172,0 -313,-140 -313,-312l0 -271 -1612 0 0 271c0,172 -141,312 -313,312l0 0c-172,0 -312,-140 -312,-312l0 -271 -1546 0c-594,0 -1080,486 -1080,1079l0 1671zm1396 2567l2091 0c184,0 334,150 334,334l0 253c0,183 -150,333 -334,333l-2091 0c-184,0 -334,-150 -334,-333l0 -253c0,-184 150,-334 334,-334zm0 5375l2091 0c184,0 334,150 334,333l0 253c0,184 -150,334 -334,334l-2091 0c-184,0 -334,-150 -334,-334l0 -253c0,-183 150,-333 334,-333zm10087 0l2091 0c184,0 334,150 334,333l0 253c0,184 -150,334 -334,334l-2091 0c-184,0 -334,-150 -334,-334l0 -253c0,-183 150,-333 334,-333zm-3363 0l2092 0c183,0 333,150 333,333l0 253c0,184 -150,334 -333,334l-2092 0c-183,0 -333,-150 -333,-334l0 -253c0,-183 150,-333 333,-333zm-3362 0l2092 0c183,0 333,150 333,333l0 253c0,184 -150,334 -333,334l-2092 0c-183,0 -333,-150 -333,-334l0 -253c0,-183 150,-333 333,-333zm-3362 -1792l2091 0c184,0 334,150 334,334l0 253c0,183 -150,333 -334,333l-2091 0c-184,0 -334,-150 -334,-333l0 -253c0,-184 150,-334 334,-334zm10087 0l2091 0c184,0 334,150 334,334l0 253c0,183 -150,333 -334,333l-2091 0c-184,0 -334,-150 -334,-333l0 -253c0,-184 150,-334 334,-334zm-3363 0l2092 0c183,0 333,150 333,334l0 253c0,183 -150,333 -333,333l-2092 0c-183,0 -333,-150 -333,-333l0 -253c0,-184 150,-334 333,-334zm-3362 0l2092 0c183,0 333,150 333,334l0 253c0,183 -150,333 -333,333l-2092 0c-183,0 -333,-150 -333,-333l0 -253c0,-184 150,-334 333,-334zm-3362 -1791l2091 0c184,0 334,150 334,333l0 253c0,183 -150,333 -334,333l-2091 0c-184,0 -334,-150 -334,-333l0 -253c0,-183 150,-333 334,-333zm10087 0l2091 0c184,0 334,150 334,333l0 253c0,183 -150,333 -334,333l-2091 0c-184,0 -334,-150 -334,-333l0 -253c0,-183 150,-333 334,-333zm-3363 0l2092 0c183,0 333,150 333,333l0 253c0,183 -150,333 -333,333l-2092 0c-183,0 -333,-150 -333,-333l0 -253c0,-183 150,-333 333,-333zm-3362 0l2092 0c183,0 333,150 333,333l0 253c0,183 -150,333 -333,333l-2092 0c-183,0 -333,-150 -333,-333l0 -253c0,-183 150,-333 333,-333zm6725 -1792l2091 0c184,0 334,150 334,334l0 253c0,183 -150,333 -334,333l-2091 0c-184,0 -334,-150 -334,-333l0 -253c0,-184 150,-334 334,-334zm-3363 0l2092 0c183,0 333,150 333,334l0 253c0,183 -150,333 -333,333l-2092 0c-183,0 -333,-150 -333,-333l0 -253c0,-184 150,-334 333,-334zm-3362 0l2092 0c183,0 333,150 333,334l0 253c0,183 -150,333 -333,333l-2092 0c-183,0 -333,-150 -333,-333l0 -253c0,-184 150,-334 333,-334zm9995 -1942l-14753 0 0 9368c0,594 486,1080 1080,1080l12594 0c594,0 1079,-486 1079,-1080l0 -9368zm-13785 -4000l1658 0 0 -399c0,-172 140,-312 312,-312l0 0c172,0 313,140 313,312l0 399 1612 0 0 -399c0,-172 141,-312 313,-312l0 0c171,0 312,140 312,312l0 399 1588 0 0 -399c0,-172 141,-312 313,-312l0 0c172,0 312,140 312,312l0 399 1589 0 0 -399c0,-172 140,-312 312,-312l0 0c172,0 313,140 313,312l0 399 1588 0 0 -399c0,-172 140,-312 312,-312l0 0c172,0 313,140 313,312l0 399 1658 0c876,0 1592,717 1592,1593l0 11887c0,876 -717,1593 -1592,1593l-12818 0c-876,0 -1593,-717 -1593,-1593l0 -11887c0,-876 717,-1593 1593,-1593z"/>
 </g>
</svg>
