<?xml version="1.0" encoding="UTF-8"?>
<!DOCTYPE svg PUBLIC "-//W3C//DTD SVG 1.1//EN" "http://www.w3.org/Graphics/SVG/1.1/DTD/svg11.dtd">
<!-- Creator: CorelDRAW X7 -->
<svg xmlns="http://www.w3.org/2000/svg" xml:space="preserve" width="55.325mm" height="55.325mm" version="1.1" style="shape-rendering:geometricPrecision; text-rendering:geometricPrecision; image-rendering:optimizeQuality; fill-rule:evenodd; clip-rule:evenodd"
viewBox="0 0 14275 14275"
 xmlns:xlink="http://www.w3.org/1999/xlink">
 <defs>
  <style type="text/css">
   <![CDATA[
    .fil1 {fill:none}
    .fil0 {fill:#FEFEFE}
   ]]>
  </style>
 </defs>
 <g id="Слой_x0020_1">
  <metadata id="CorelCorpID_0Corel-Layer"/>
  <path class="fil0" d="M11347 12990c604,1 1050,-184 1348,-713 147,-259 168,-528 168,-867l0 -8284c0,-577 -274,-1045 -790,-1288 -297,-140 -557,-129 -920,-128 -344,1 -688,-1 -1032,0 -238,1 -686,-75 -661,397 32,137 110,235 250,271 90,23 1226,12 1341,12 410,-2 892,-69 1091,448 79,205 41,1198 42,1499 9,2315 -1,4641 0,6958 0,217 22,521 -96,662 -127,291 -451,353 -731,352l-8449 0c-149,1 -314,-3 -447,-83 -395,-237 -367,-540 -367,-944l0 -6932c0,-303 -35,-1296 38,-1503 63,-180 209,-328 377,-400 191,-81 479,-57 705,-56l1147 0c230,0 463,-11 504,-295 4,-81 -7,-144 -36,-203 -65,-130 -183,-182 -328,-183 -85,-1 -170,1 -255,1 -415,-2 -1232,-20 -1567,4 -583,41 -1018,442 -1183,892 -109,297 -82,631 -82,965l0 7290c0,742 -63,1255 380,1700 169,170 344,307 657,388 112,29 262,40 419,44 2792,62 5675,-2 8477,-4zm-6826 -3079l5143 0c181,0 329,148 329,329l0 0c0,181 -148,329 -329,329l-5143 0c-180,0 -329,-148 -329,-329l0 0c0,-181 149,-329 329,-329zm88 -3860c-3,95 10,169 66,240l2018 2097c359,364 513,372 901,-3l1985 -2066c52,-85 97,-82 86,-287 -40,-134 -116,-235 -263,-260 -190,-32 -282,84 -358,164l-1575 1625 -2 -5773c-1,-125 15,-262 -40,-364 -91,-168 -335,-230 -485,-101 -31,26 -71,72 -92,113 -49,97 -34,254 -34,378l-3 5753 -1469 -1512c-133,-142 -250,-317 -473,-279 -147,25 -238,132 -262,275z"/>
  <rect class="fil1" width="14275" height="14275"/>
 </g>
</svg>
