<?xml version="1.0" encoding="UTF-8"?>
<!DOCTYPE svg PUBLIC "-//W3C//DTD SVG 1.1//EN" "http://www.w3.org/Graphics/SVG/1.1/DTD/svg11.dtd">
<!-- Creator: CorelDRAW X7 -->
<svg xmlns="http://www.w3.org/2000/svg" xml:space="preserve" width="55.325mm" height="55.325mm" version="1.1" style="shape-rendering:geometricPrecision; text-rendering:geometricPrecision; image-rendering:optimizeQuality; fill-rule:evenodd; clip-rule:evenodd"
viewBox="0 0 19362 19362"
 xmlns:xlink="http://www.w3.org/1999/xlink">
 <defs>
  <style type="text/css">
   <![CDATA[
    .fil1 {fill:none}
    .fil0 {fill:#020202}
   ]]>
  </style>
 </defs>
 <g id="Слой_x0020_1">
  <metadata id="CorelCorpID_0Corel-Layer"/>
  <path class="fil0" d="M1852 15796c-2,-507 154,-968 498,-1172 161,-96 462,-186 677,-112 219,75 305,258 361,475 182,714 -501,964 -210,1268 89,93 184,83 329,83 387,-1 863,-11 1231,1 -35,138 -153,378 -224,493 -93,150 -191,278 -331,385 -295,226 -662,299 -1135,292 -426,-5 -713,-300 -880,-559 -212,-328 -315,-701 -316,-1154zm3123 -1297c5,483 7,870 -91,1312l-1058 -2c3,-52 53,-188 68,-260 60,-271 -16,-855 -124,-1060 399,1 806,-7 1205,10zm9256 -1259c-37,-180 -117,-634 -178,-802 -5,-15 -15,-41 -26,-53 -136,126 -274,319 -418,413 19,212 103,526 144,752 48,261 65,519 98,784 30,232 13,646 0,890 -36,678 -247,1450 -743,1890 -421,374 -802,395 -1374,395l-5303 0c-580,0 -1193,20 -1771,-2l255 -330c242,-356 390,-780 478,-1217 116,-573 163,-1495 43,-2082 -18,-89 -35,-358 -64,-510 -85,-453 -188,-919 -317,-1354 -183,-618 -1023,-2771 -1174,-3026 -179,-398 -361,-797 -537,-1198 -351,-800 -693,-1638 -958,-2512 -128,-423 -256,-974 -265,-1464 -9,-453 112,-1110 302,-1428 240,-401 630,-570 1199,-540 442,24 882,372 928,827 -502,-7 -1015,-5 -1517,-1 -266,2 -304,161 -335,406 -27,217 -13,496 37,692 106,405 290,694 611,878 351,200 891,143 1351,143 594,0 5874,-27 5962,10l171 664c65,219 124,422 195,637 130,399 281,814 442,1205 81,198 158,390 241,590 78,186 155,382 245,573 63,136 470,1004 510,1138 49,-11 28,-2 69,-38 79,-69 323,-262 354,-309 -73,-178 -158,-350 -243,-538l-688 -1618c-143,-355 -291,-752 -413,-1120 -70,-211 -333,-1005 -332,-1190 187,-22 1355,-4 1642,-4 246,0 279,20 456,-91 468,-294 725,-752 792,-1386 69,-662 -234,-1204 -616,-1536 -528,-460 -1036,-465 -1707,-465l-6520 10c-385,-19 -1799,-34 -2132,20 -608,97 -989,422 -1243,946 -234,485 -318,1267 -260,1882 140,1511 1331,4083 2032,5586 479,1027 855,2126 1114,3245 68,294 133,631 165,931 -73,58 -224,21 -336,32l-1133 0c-502,0 -948,-43 -1339,177 -349,195 -535,471 -674,847 -278,751 -101,1792 386,2405 658,826 1379,646 2387,646l7582 0c519,0 876,-40 1259,-254 345,-193 573,-420 782,-736 197,-299 358,-716 431,-1085 171,-868 127,-1856 -47,-2725zm-7682 2485c11,84 69,153 136,191 116,65 790,34 950,35 220,0 440,-1 659,0 210,1 367,-89 345,-297 -25,-226 -219,-233 -431,-233l-1319 0c-217,0 -368,99 -340,304zm2491 -2133c-569,0 -1137,0 -1706,0 -258,0 -588,-62 -650,206 -28,121 34,233 125,286 98,57 256,35 382,35 764,0 1589,11 2351,-2 99,-2 108,15 161,-50 51,-63 357,-435 368,-476l-1031 1zm1737 -1826c-381,-19 -807,-2 -1193,-2l-2952 0c-221,0 -355,-26 -447,145 -89,164 25,336 173,375 88,23 1586,10 1750,10 775,0 1577,-20 2349,1l320 -529zm-4805 -1830c-403,-2 -366,318 -283,424 77,98 147,102 297,101l4788 0c173,0 645,36 756,-44 183,-132 135,-415 -76,-472 -20,-6 -127,-9 -277,-11 -1599,-20 -3007,2 -5205,2zm-1720 -3644c-255,86 -226,383 -50,481 92,52 642,28 796,28l3268 0c206,0 1544,14 1630,-10 205,-56 255,-374 37,-486 -97,-50 -637,-26 -793,-26 -496,0 -4792,-20 -4888,13zm6597 2152c38,-128 -21,-234 -102,-290 -95,-66 -229,-47 -360,-47l-4902 0c-245,0 -553,-59 -624,187 -38,132 29,245 106,295 89,58 236,44 360,44l4902 0c255,0 548,59 620,-189zm6526 -1301c22,-44 175,-166 231,-209 38,-30 51,-39 80,-77 -377,11 -743,151 -1003,316 -196,124 -585,475 -642,646 6,-120 175,-387 238,-482 -130,15 -498,217 -604,275 -359,197 -686,496 -926,823 -65,89 -294,442 -326,532 -11,-137 160,-558 217,-662 -85,21 -482,349 -562,418 -543,468 -1002,1002 -1283,1683 -10,-12 -6,3 -12,-31 -11,-53 11,-122 26,-179 64,-235 219,-508 223,-543 -46,24 -196,164 -241,205 -81,74 -148,143 -223,222 -296,313 -527,677 -712,1065 -48,101 -90,205 -131,312 -31,77 -90,288 -120,322 -66,-234 60,-495 70,-584 -182,168 -359,410 -480,665 -224,475 -173,660 -255,891 -62,-161 -48,-277 -40,-447 -160,185 -264,713 -302,1022 -11,89 11,236 -43,302 -404,491 -980,1196 -1292,1703 -79,128 -221,305 -172,472 169,48 404,-328 499,-446 200,-250 1100,-1385 1313,-1575 326,23 562,-12 830,-108 157,-56 498,-229 547,-380 -292,31 -238,19 -568,-13 249,-103 497,-53 1030,-332 191,-100 704,-460 773,-612 -93,14 -494,165 -687,77 16,-38 36,-22 93,-32 160,-28 461,-169 598,-248 231,-132 392,-252 571,-389 224,-173 821,-746 966,-970 -179,0 -261,107 -593,31 71,-55 560,-111 1136,-632 154,-139 310,-294 445,-446 74,-84 136,-156 204,-239 41,-49 169,-189 191,-243 -72,20 -130,45 -214,63 -69,15 -326,43 -390,9 64,-48 386,-66 896,-535 140,-129 619,-660 600,-803 -54,66 -324,128 -438,120 229,-178 328,-166 655,-508 149,-155 400,-452 495,-665 -252,-11 -550,196 -668,216zm-12769 -3941c38,230 -191,1048 -697,1058 -572,11 -753,-691 -694,-1058l1391 0zm214 1062c13,-48 147,-262 240,-560 60,-194 94,-481 79,-707 -21,-323 -104,-653 -263,-924 -35,-60 -134,-184 -148,-234 2062,28 4186,1 6261,1 409,0 839,-13 1246,0 690,22 1278,485 1338,1157 42,473 -103,906 -416,1164 -69,57 -111,102 -218,103 -205,3 -412,0 -617,0 -2495,0 -5012,-15 -7502,0z"/>
  <rect class="fil1" width="19362" height="19362"/>
 </g>
</svg>
