<?xml version="1.0" encoding="UTF-8"?>
<!DOCTYPE svg PUBLIC "-//W3C//DTD SVG 1.1//EN" "http://www.w3.org/Graphics/SVG/1.1/DTD/svg11.dtd">
<!-- Creator: CorelDRAW X7 -->
<svg xmlns="http://www.w3.org/2000/svg" xml:space="preserve" width="55.325mm" height="55.325mm" version="1.1" style="shape-rendering:geometricPrecision; text-rendering:geometricPrecision; image-rendering:optimizeQuality; fill-rule:evenodd; clip-rule:evenodd"
viewBox="0 0 14238 14238"
 xmlns:xlink="http://www.w3.org/1999/xlink">
 <defs>
  <style type="text/css">
   <![CDATA[
    .fil1 {fill:none}
    .fil0 {fill:#020202}
   ]]>
  </style>
 </defs>
 <g id="Слой_x0020_1">
  <metadata id="CorelCorpID_0Corel-Layer"/>
  <path class="fil0" d="M2516 3392c3652,0 7525,0 9206,0 629,0 1144,515 1144,1144l0 5166c0,629 -515,1144 -1144,1144l-9206 0c-629,0 -1144,-515 -1144,-1144l0 -5166c0,-630 515,-1144 1144,-1144zm8340 2388l618 0c94,0 171,76 171,170l0 0c0,94 -77,171 -171,171l-618 0c-94,0 -171,-77 -171,-171l0 0c0,-94 77,-170 171,-170zm-3084 0l2198 0c94,0 171,76 171,170l0 0c0,94 -77,171 -171,171l-2198 0c-94,0 -171,-77 -171,-171l0 0c0,-94 77,-170 171,-170zm0 1143l3702 0c94,0 171,77 171,171l0 0c0,94 -77,171 -171,171l-3702 0c-94,0 -171,-77 -171,-171l0 0c0,-94 77,-171 171,-171zm0 1144l3702 0c94,0 171,77 171,171l0 0c0,94 -77,171 -171,171l-3702 0c-94,0 -171,-77 -171,-171l0 0c0,-94 77,-171 171,-171zm-5059 1289l0 -595c0,-757 587,-1382 1327,-1445 -390,-237 -650,-666 -650,-1156 0,-748 605,-1353 1353,-1353 747,0 1353,605 1353,1353 0,493 -265,925 -659,1161 717,86 1277,700 1277,1440l0 595 -143 0 -69 0 -113 0 0 -551c0,-665 -544,-1209 -1209,-1209l-945 0c-665,0 -1209,544 -1209,1209l0 551 -100 0 -83 0 -130 0zm2030 -4232c574,0 1039,465 1039,1039 0,573 -465,1038 -1039,1038 -573,0 -1038,-465 -1038,-1038 0,-574 465,-1039 1038,-1039zm-2147 -1283l9046 0c426,0 775,348 775,775l0 5006c0,426 -349,775 -775,775l-9046 0c-426,0 -775,-349 -775,-775l0 -5006c0,-427 349,-775 775,-775z"/>
  <rect class="fil1" width="14238" height="14238"/>
 </g>
</svg>
