<?xml version="1.0" encoding="UTF-8"?>
<!DOCTYPE svg PUBLIC "-//W3C//DTD SVG 1.1//EN" "http://www.w3.org/Graphics/SVG/1.1/DTD/svg11.dtd">
<!-- Creator: CorelDRAW X7 -->
<svg xmlns="http://www.w3.org/2000/svg" xml:space="preserve" width="55.325mm" height="55.325mm" version="1.1" style="shape-rendering:geometricPrecision; text-rendering:geometricPrecision; image-rendering:optimizeQuality; fill-rule:evenodd; clip-rule:evenodd"
viewBox="0 0 22613 22613"
 xmlns:xlink="http://www.w3.org/1999/xlink">
 <defs>
  <style type="text/css">
   <![CDATA[
    .fil1 {fill:none}
    .fil0 {fill:#020202}
   ]]>
  </style>
 </defs>
 <g id="Слой_x0020_1">
  <metadata id="CorelCorpID_0Corel-Layer"/>
  <path class="fil0" d="M11306 1548c5390,0 9759,4369 9759,9758 0,5390 -4369,9759 -9759,9759 -5389,0 -9758,-4369 -9758,-9759 0,-5389 4369,-9758 9758,-9758zm2157 10231c2167,260 3862,2117 3862,4351l0 2177c1967,-1693 3214,-4201 3214,-7001 0,-5098 -4134,-9232 -9233,-9232 -5098,0 -9232,4134 -9232,9232 0,2772 1222,5258 3155,6950l0 -2126c0,-2285 1773,-4176 4012,-4366 -1179,-718 -1966,-2015 -1966,-3496 0,-2259 1831,-4090 4090,-4090 2259,0 4090,1831 4090,4090 0,1492 -799,2797 -1992,3511zm3219 7033l0 -2548c0,-2155 -1762,-3917 -3917,-3917 -992,0 -1984,0 -2976,0 -2154,0 -3917,1762 -3917,3917l0 2506c1525,1112 3403,1769 5434,1769 2006,0 3862,-640 5376,-1727zm-5317 -13992c-1904,0 -3448,1544 -3448,3448 0,1904 1544,3447 3448,3447 1904,0 3447,-1543 3447,-3447 0,-1904 -1543,-3448 -3447,-3448z"/>
  <rect class="fil1" width="22613" height="22613"/>
 </g>
</svg>
