<?xml version="1.0" encoding="UTF-8"?>
<!DOCTYPE svg PUBLIC "-//W3C//DTD SVG 1.1//EN" "http://www.w3.org/Graphics/SVG/1.1/DTD/svg11.dtd">
<!-- Creator: CorelDRAW X7 -->
<svg xmlns="http://www.w3.org/2000/svg" xml:space="preserve" width="55.325mm" height="55.325mm" version="1.1" style="shape-rendering:geometricPrecision; text-rendering:geometricPrecision; image-rendering:optimizeQuality; fill-rule:evenodd; clip-rule:evenodd"
viewBox="0 0 16238 16238"
 xmlns:xlink="http://www.w3.org/1999/xlink">
 <defs>
  <style type="text/css">
   <![CDATA[
    .fil1 {fill:none}
    .fil0 {fill:#FEFEFE}
   ]]>
  </style>
 </defs>
 <g id="Слой_x0020_1">
  <metadata id="CorelCorpID_0Corel-Layer"/>
  <path class="fil0" d="M2944 4778c0,293 187,340 369,527l3072 2750 -3293 3085c-269,235 -104,672 268,672 176,0 279,-136 394,-237l3211 -3003 880 780c243,215 367,190 603,-37l861 -768 3306 3135 122 92c259,133 555,-60 555,-290 0,-177 -28,-236 -148,-356l-3255 -3098 3240 -2909c56,-50 99,-101 122,-145 125,-243 -34,-551 -362,-551 -96,0 -178,36 -242,94l-4522 4066 -4484 -4012c-333,-323 -697,-78 -697,205zm-447 -1720c4960,0 8961,0 11243,0 855,0 1554,699 1554,1553l0 7016c0,853 -700,1553 -1554,1553l-11243 0c-853,0 -1553,-699 -1553,-1553l0 -7016c0,-854 699,-1553 1553,-1553zm109 609l11025 0c579,0 1053,474 1053,1053l0 6798c0,578 -474,1052 -1053,1052l-11025 0c-578,0 -1052,-473 -1052,-1052l0 -6798c0,-579 473,-1053 1052,-1053z"/>
  <rect class="fil1" width="16238" height="16238"/>
 </g>
</svg>
