<?xml version="1.0" encoding="UTF-8"?>
<!DOCTYPE svg PUBLIC "-//W3C//DTD SVG 1.1//EN" "http://www.w3.org/Graphics/SVG/1.1/DTD/svg11.dtd">
<!-- Creator: CorelDRAW X7 -->
<svg xmlns="http://www.w3.org/2000/svg" xml:space="preserve" width="54.1444mm" height="54.1444mm" version="1.1" style="shape-rendering:geometricPrecision; text-rendering:geometricPrecision; image-rendering:optimizeQuality; fill-rule:evenodd; clip-rule:evenodd"
viewBox="0 0 116309 116309"
 xmlns:xlink="http://www.w3.org/1999/xlink">
 <defs>
  <style type="text/css">
   <![CDATA[
    .fil1 {fill:none}
    .fil0 {fill:#2B2A29}
   ]]>
  </style>
 </defs>
 <g id="Слой_x0020_1">
  <metadata id="CorelCorpID_0Corel-Layer"/>
  <path class="fil0" d="M47951 78972c-2185,950 -164,-461 -1324,1283l-1719 4608c2567,83 3052,-522 5441,-1257 -7201,3054 -7571,5011 -17174,6184 -1402,-2468 91,-5103 1718,-6677 -1919,-1894 -1809,-208 -2332,-3893 2171,582 6548,1595 8640,287 -2779,-1038 -5623,-544 -7781,-2125l2193 -1165c145,-84 335,-215 456,-289 129,-78 377,-75 472,-327 98,-259 333,-215 483,-346 -1899,347 -2846,879 -4415,187l-6 -4894 3351 -249c-1073,-760 -609,-881 -3302,-760 1105,-3111 1276,-505 445,-2601 -549,-1384 -646,-16 -541,-2540l4268 2671c1280,712 2619,1897 3887,1296 -411,-1087 -3022,-2240 -5526,-4253l-1333 -1204c-58,-215 -236,-220 -325,-353 5799,-759 10328,1641 9466,7075 -2240,1297 -3022,1197 -5870,783 1045,968 -1573,1175 2614,1206l5394 -901c-4137,1004 -2731,1549 -7918,1797 902,1932 -1064,1548 2216,1962 -2021,-1555 -2080,979 -2172,1085 6213,-389 2436,1404 7657,2932 -67,123 -2878,8006 -3579,6724 -62,-112 -274,163 -405,255 4161,-217 3466,-2372 4644,-6031l2377 -470zm-16095 19956l2 0 -3 -8915c-1,-2560 -101,-3324 -151,-5911 -43,-2184 -750,-2755 -628,-5600 89,-2051 84,-3070 34,-5137 -90,-3683 -576,-7253 -173,-10861 1135,-1417 237,-33 1069,-924 2841,-3043 -1014,-2928 3327,-3099 253,-3429 -414,-4760 2127,-5534l-565 -1485c-1345,95 -3071,-3737 -3814,-5065 -11422,-20404 2683,-41860 21759,-35899 2381,744 4561,2157 6417,3256 3146,1865 3324,1150 7734,1821 18140,2762 17891,27360 9643,36460 -1049,2169 -1584,2433 -287,5610 2355,5769 5461,-57 5345,18610 -17,2733 -218,5237 -313,7919 -158,4442 679,3260 980,6711l8 16085 -52507 0 -4 -8042zm7518 -44091l1349 2559c3809,3462 7770,6858 12607,8973 1020,446 2263,1055 3193,1417 2622,1022 1148,683 3534,492 -1085,613 165,283 -1477,402 -691,49 -735,-18 -1383,-151 -716,-147 -995,-443 -2043,-637 -1330,1685 -334,1758 -564,2472l-1966 -3757c-59,-270 -226,-293 -368,-410 1443,4000 -291,3669 -462,3841 -2266,-89 -2467,-671 -4053,-961 -8959,-1637 -539,-3069 -6853,-6280 -2017,-1026 -5011,-922 -6447,-1758 314,-3755 458,763 2199,-3449 1086,-2627 211,-1349 1583,-3316 117,1214 -290,-40 1151,563zm8577 24135c1097,-107 3892,-1130 5095,-1480 3423,-996 490,-256 1277,6 693,231 -2421,1485 1274,-52 2222,-925 1476,-1966 4113,-661l4718 1549c-974,-1335 -1053,-1313 -2965,-1803 148,-116 432,-221 586,-681 465,-1385 -20,-794 -132,-1141 -3609,258 -3524,380 -6760,1543l1819 -2076c1268,-2397 -1218,-2605 -1594,-5447 1637,455 2126,698 3913,1081 1933,413 2184,302 3259,1640 81,-130 124,-350 162,-429l5544 -383c-48,-2152 -914,-2727 -794,-4997 137,-2599 798,-3035 2904,-3295 360,1087 -25,1638 -134,2149 -285,1346 -1415,2520 1874,4876 -356,-864 -1279,-1822 -1288,-3314 -22,-3532 3710,-4669 3974,-7249 -2069,559 -977,288 -2180,1148 -75,54 -860,979 -1392,1386 739,-3651 2039,-1883 4340,-4752l444 -1189c654,1525 571,2729 1390,4086 1573,2605 4606,1810 4813,11939l-3185 -18c626,570 411,499 1415,1021 12,6 1188,230 1203,232 -251,915 305,-198 -424,527l-1264 1081 2251 295 -9 5110 -2214 -3264c-34,-282 -132,-358 -245,-508 70,1355 -72,1946 -83,2839 -2,161 -18,302 -15,453 75,3205 -183,2480 2374,3258l54 3496c-2001,-3411 -8288,-6958 -13936,-7075 2620,-1145 2920,-353 3988,-767 3028,-1175 1273,474 613,-3542 3064,-916 2597,-32 4396,-2019 -2937,-260 -5513,-276 -8455,-120 -7030,375 -5594,-266 -6617,2700 3628,-131 6250,-2164 7938,1130 -852,2019 -1231,1556 -4187,2084 -10000,1783 -12106,3977 -19461,5408l1603 -4775zm-21087 28422l62581 0 0 6881 -62581 0 0 -6881z"/>
  <rect class="fil1" width="116309" height="116309"/>
 </g>
</svg>
