<?xml version="1.0" encoding="UTF-8"?>
<!DOCTYPE svg PUBLIC "-//W3C//DTD SVG 1.1//EN" "http://www.w3.org/Graphics/SVG/1.1/DTD/svg11.dtd">
<!-- Creator: CorelDRAW X7 -->
<svg xmlns="http://www.w3.org/2000/svg" xml:space="preserve" width="55.325mm" height="55.325mm" version="1.1" style="shape-rendering:geometricPrecision; text-rendering:geometricPrecision; image-rendering:optimizeQuality; fill-rule:evenodd; clip-rule:evenodd"
viewBox="0 0 17126 17126"
 xmlns:xlink="http://www.w3.org/1999/xlink">
 <defs>
  <style type="text/css">
   <![CDATA[
    .fil1 {fill:none}
    .fil0 {fill:#010101}
   ]]>
  </style>
 </defs>
 <g id="Слой_x0020_1">
  <metadata id="CorelCorpID_0Corel-Layer"/>
  <path class="fil0" d="M7131 5957l8 -330c10,-123 24,-324 94,-405 -4,-147 189,-464 257,-556 52,-71 127,-152 198,-210 65,-52 166,-96 240,-147 8,-463 -1,-952 148,-1366 66,-185 182,-379 295,-466 91,-71 345,-240 512,-215 14,332 18,653 39,984l72 913c42,64 53,303 64,403 21,70 44,192 28,258 3,4 6,10 8,14l84 385c28,135 68,275 89,408 60,122 167,655 371,1068 33,67 40,68 3,121l-540 702c-364,-170 -865,-526 -1198,-776 -41,-30 -131,-81 -145,-122l-337 -265c-36,-47 -10,-4 -26,-45 -66,-12 -40,-5 -98,-63 -29,-29 -44,-41 -75,-66 -94,-76 -75,-66 -91,-224zm-3569 -3187c51,-182 158,-291 256,-391 72,-74 254,-220 365,-250l139 641c50,134 89,315 136,457 224,680 594,1379 998,1950l502 660c42,24 1,-8 45,35 12,11 16,17 26,29 19,23 27,34 49,65l348 353c28,27 54,49 91,87l263 252c236,227 492,415 760,625 303,237 1416,957 1745,1029l454 -580c150,-197 288,-378 438,-574 259,-339 499,-696 741,-1053l105 -132c35,-91 130,-193 196,-275 14,-18 19,-27 32,-40 33,-34 5,-12 46,-36l-5 5c55,-86 257,-302 365,-336 49,-81 396,-217 537,-192 59,-35 164,-25 233,-20 447,36 732,524 804,891 74,168 57,415 151,566 85,137 220,302 286,440 -288,15 -596,0 -886,2 -293,2 -591,-57 -701,184 -100,217 257,1166 214,1506 54,75 55,393 61,509l-6 127c58,105 8,434 -7,570 -210,1119 -1042,1739 -2061,2128 -182,69 -916,320 -1081,295 -160,107 -625,-42 -636,416l-8 1736c-141,145 -436,301 -651,396 -160,70 -634,245 -810,236 -66,53 -334,73 -438,81l-321 36 -727 21c-529,-12 -1220,-164 -1651,-485 -12,-8 -33,-24 -40,-31 -37,-34 -13,-5 -36,-41l1371 -1456c71,-83 151,-180 224,-256 50,-53 64,-75 107,-124l110 -109c26,-55 -3,-6 39,-61 54,-69 182,-233 242,-259 12,-73 3,-26 24,-33 38,-90 717,-838 780,-952l268 0c92,-46 110,-35 174,-109 46,-53 76,-120 75,-208 -2,-187 -124,-265 -268,-310 -107,-3 -383,12 -453,-36 -77,8 -167,-4 -238,-25 -157,-22 -580,-137 -717,-228 -24,-16 -19,-13 -34,-28 -75,-6 -291,-142 -314,-192 -35,-17 -20,-5 -45,-24 -27,-21 -9,-7 -28,-35 -45,-11 5,14 -51,-28l-130 -119c-51,-54 -100,-109 -149,-171 -406,-511 -386,-949 -429,-1523 -338,-147 -750,-594 -939,-907 -242,-398 -393,-919 -306,-1487 10,-111 16,-309 78,-386 -6,-153 159,-501 225,-624 93,-173 262,-374 389,-462 -21,-85 -137,-247 -187,-364 -158,-364 -301,-1025 -139,-1376zm1037 -1481c-4,3 -9,7 -12,8l-96 35c-403,98 -419,155 -663,234 -33,40 -189,122 -249,166 -393,284 -508,610 -562,664l-118 377c-30,176 -47,327 -39,511 6,138 55,368 46,482l130 440c18,24 70,148 71,180 0,49 -56,125 -87,140 -89,217 -174,302 -299,661l-44 92c9,83 -39,231 -67,312 -39,337 -88,614 -60,972 11,143 38,293 73,438 35,145 93,275 124,401 44,55 125,253 179,341 42,68 180,270 192,313 34,20 16,-27 38,50 38,16 121,121 153,159 48,60 114,112 142,170 42,18 27,6 44,43 65,24 113,91 182,146 80,64 134,62 144,193 16,201 48,392 99,576 98,350 267,666 451,899 353,448 922,861 1664,1017 -43,79 -545,662 -596,716 -61,64 -97,110 -156,180 -50,58 -403,480 -447,505 -105,141 -141,158 -216,251 -12,15 -21,27 -33,39 -45,44 -5,11 -46,36 1,20 24,27 -14,11 -48,77 -108,148 -168,205 -96,91 -109,144 -176,161 -7,46 4,15 -19,52l-224 237c-73,82 -173,193 -253,262l-411 388c-47,49 -45,65 -79,118 -19,31 -8,16 -24,34 22,160 0,207 77,353 56,107 109,163 186,240 135,136 289,256 496,356 646,315 731,247 1305,377 654,48 1157,2 1791,-75l359 -71 371 -99c47,-30 268,-97 348,-132 116,-51 230,-114 342,-160 156,-96 331,-201 463,-312 143,-119 289,-196 286,-478 -3,-261 1,-521 -1,-782 -1,-234 -14,-532 4,-755l688 -150c52,-29 230,-78 293,-79 45,-48 295,-119 381,-153 126,-49 263,-125 384,-161 40,-41 234,-126 301,-165 103,-58 192,-117 284,-178 21,-15 51,-33 75,-49l193 -145c94,-72 162,-136 248,-213 246,-221 554,-614 693,-940 22,-51 49,-115 71,-152 43,-190 114,-346 151,-569 35,-222 44,-430 37,-657 -13,-447 -77,-835 -135,-1263l-88 -479 1529 -2c191,-23 229,-157 269,-209 33,-230 -20,-216 -95,-375 -83,-90 -241,-348 -328,-480 -100,-154 -257,-316 -243,-556l-121 -382c-67,-132 -97,-246 -178,-383 -79,-133 -137,-218 -225,-325 -151,-184 -368,-321 -675,-420l-353 -38 -287 6c-56,39 -338,86 -430,124 -144,58 -252,139 -366,184 -13,32 -52,52 -85,75 -196,143 -399,377 -547,571l-539 753c-41,-100 -153,-390 -152,-502 -106,-110 -248,-1190 -303,-1437 9,-108 -52,-253 -22,-357 -2,-5 -5,-11 -6,-15 -29,-83 -38,-277 -43,-365l0 -150c-48,-73 -47,-467 -34,-576 -48,-58 -26,-1001 -27,-1164l-479 3c-1331,123 -1693,1018 -1741,2368 -376,297 -663,817 -775,1490 -42,-29 -39,-33 -76,-73 -338,-373 -598,-782 -862,-1214 -110,-180 -216,-409 -304,-601 -58,-128 -277,-631 -267,-753l-17 -25c-33,-63 -81,-284 -104,-360l-123 -718 -37 -355 -9 -75 -122 12z"/>
  <rect class="fil1" width="17126" height="17126"/>
 </g>
</svg>
