<?xml version="1.0" encoding="UTF-8"?>
<!DOCTYPE svg PUBLIC "-//W3C//DTD SVG 1.1//EN" "http://www.w3.org/Graphics/SVG/1.1/DTD/svg11.dtd">
<!-- Creator: CorelDRAW X7 -->
<svg xmlns="http://www.w3.org/2000/svg" xml:space="preserve" width="55.325mm" height="55.325mm" version="1.1" style="shape-rendering:geometricPrecision; text-rendering:geometricPrecision; image-rendering:optimizeQuality; fill-rule:evenodd; clip-rule:evenodd"
viewBox="0 0 16402 16402"
 xmlns:xlink="http://www.w3.org/1999/xlink">
 <defs>
  <style type="text/css">
   <![CDATA[
    .fil0 {fill:none}
    .fil1 {fill:black}
   ]]>
  </style>
 </defs>
 <g id="Слой_x0020_1">
  <metadata id="CorelCorpID_0Corel-Layer"/>
  <rect class="fil0" width="16402" height="16402"/>
  <path class="fil1" d="M9624 9271c528,121 1725,-410 2466,-52 -1529,-21 -2505,915 -3344,1640 -87,-650 266,-2128 -518,-2148 -471,-12 -511,350 -518,823l-6 4037c-4,665 -102,685 317,1062 233,210 439,522 695,644 50,-2051 -14,-3028 1216,-4129 291,106 320,232 620,387 1850,948 2926,-1014 3742,-2289 -182,-212 -853,-660 -1103,-847 -320,-241 -805,-556 -1327,-655 -1338,-253 -2403,847 -2240,1527zm-2737 -6815l344 293c561,443 816,880 1002,990 240,-254 344,-467 592,-689 215,-192 530,-366 726,-594 -207,-336 -924,-1323 -1320,-1331 -417,-9 -1154,986 -1344,1331zm1883 5059c838,215 1894,-977 2167,-1506 363,-705 481,-2506 279,-3350 -999,-234 -2109,700 -2484,1288 -301,474 -44,991 -29,1622 14,629 -13,1358 67,1946zm-3444 -4873c-281,138 -174,1524 -165,1868 75,2781 2637,3321 2959,3087 197,-143 88,-1508 76,-1853 -99,-2875 -2620,-3225 -2870,-3102zm-3218 6568c746,890 1533,3137 3501,2442 640,-225 1550,-1020 772,-1683 -465,-396 -1526,-703 -2287,-753 1092,-520 3612,988 2568,-585 -1492,-2246 -3879,179 -4554,579z"/>
 </g>
</svg>
