<?xml version="1.0" encoding="UTF-8"?>
<!DOCTYPE svg PUBLIC "-//W3C//DTD SVG 1.1//EN" "http://www.w3.org/Graphics/SVG/1.1/DTD/svg11.dtd">
<!-- Creator: CorelDRAW X7 -->
<svg xmlns="http://www.w3.org/2000/svg" xml:space="preserve" width="54.1444mm" height="54.1444mm" version="1.1" style="shape-rendering:geometricPrecision; text-rendering:geometricPrecision; image-rendering:optimizeQuality; fill-rule:evenodd; clip-rule:evenodd"
viewBox="0 0 59041 59041"
 xmlns:xlink="http://www.w3.org/1999/xlink">
 <defs>
  <style type="text/css">
   <![CDATA[
    .fil1 {fill:none}
    .fil0 {fill:#2B2A29}
   ]]>
  </style>
 </defs>
 <g id="Слой_x0020_1">
  <metadata id="CorelCorpID_0Corel-Layer"/>
  <path class="fil0" d="M42827 5981l0 48319 -26654 0 2449 -2141 1072 -4164 28 -249 -92 -49 -69 -92 -96 12 -476 -185 -483 -73 -141 -48 29 -93 92 -117 -64 -16 0 -108 -61 -21 -4 -648 73 -16 -32 -76 209 -367 76 -20 0 -60 137 -210 178 -24 -9 -137 49 -274 -81 -132 77 -161 -298 -137 -8 -113 -181 -205 -5 -206 -153 -125 -382 -278 -330 -366 -4 -133 80 -20 0 -189 -18 -222 -70 -34 22 -761 60 -42 -12 -169 145 -8 193 -73 210 -129 145 -217 217 -475 226 -346 281 -97 170 -89 306 32 483 -144 16 -170 515 -80 113 -201 -411 -371 -877 -1208 -323 -604 97 -153 -48 -507 -129 -258 -105 -40 -692 -870 314 -32 145 -65 153 -257 -210 -194 8 -499 -112 -177 0 -378 -113 -186c0,-29 0,-59 0,-88l56 -258 -72 -185 112 -161 -217 -169 -8 -492 -652 -418 0 -194 217 -8 636 -322 -64 -161 354 -322 -185 -56 -725 -572 -539 -588 -81 -346 -16 -620 -354 -580 290 -451 322 0 129 -516 708 -515 129 -483 1095 -32 290 -290 483 193 33 -419 -934 -628 -1 -9406 -1997 -467 -32 -2738 2027 477 0 -5599 -3283 0 0 -2480 3286 0 0 -3801 2718 0 -1 3801 3284 -1 0 2480 -3276 0 -8 6250 3283 763 8 2730 -3290 -774 -1 10708 737 -406 3 -9372 3195 751 0 -4299 -3197 -751 0 -4865 3196 1 -3 -3950 -2766 0c4302,-2033 9271,-2313 14392,-2192 284,3283 2525,3320 5094,3767zm-29190 48535l31767 0 0 3493 -31767 0 0 -3493z"/>
  <rect class="fil1" width="59041" height="59041"/>
 </g>
</svg>
