<?xml version="1.0" encoding="UTF-8"?>
<!DOCTYPE svg PUBLIC "-//W3C//DTD SVG 1.1//EN" "http://www.w3.org/Graphics/SVG/1.1/DTD/svg11.dtd">
<!-- Creator: CorelDRAW X7 -->
<svg xmlns="http://www.w3.org/2000/svg" xml:space="preserve" width="55.325mm" height="55.325mm" version="1.1" style="shape-rendering:geometricPrecision; text-rendering:geometricPrecision; image-rendering:optimizeQuality; fill-rule:evenodd; clip-rule:evenodd"
viewBox="0 0 19758 19758"
 xmlns:xlink="http://www.w3.org/1999/xlink">
 <defs>
  <style type="text/css">
   <![CDATA[
    .fil0 {fill:none}
    .fil1 {fill:black}
   ]]>
  </style>
 </defs>
 <g id="Слой_x0020_1">
  <metadata id="CorelCorpID_0Corel-Layer"/>
  <rect class="fil0" width="19758" height="19758"/>
  <path class="fil1" d="M8177 16822c-150,-221 -305,-307 -489,-454l-1424 -1474c-1872,-2121 -3519,-5498 -2287,-8446l-499 -214c-293,1361 -547,1965 -306,3609 151,1024 582,2192 1021,2987 490,886 1078,1757 1668,2402 329,359 1627,1831 2075,1951l241 -361zm-3992 -8489c1376,-224 2184,-1326 1740,-2888 -1172,269 -2156,1423 -1740,2888zm-2762 4569c19,592 603,1233 990,1430 825,419 1251,210 2036,28 -266,-1304 -1577,-1778 -3026,-1458zm12430 -7466c-443,1639 341,2556 1732,2886 542,-1375 -638,-2666 -1732,-2886zm1488 8912c753,197 1256,376 2027,-22 443,-229 932,-837 1009,-1431 -1428,-309 -2810,123 -3036,1453zm-13825 -9733c-264,641 -552,1181 -206,1985 224,521 705,1057 1303,1187 303,-647 449,-1176 93,-1958 -211,-464 -714,-1075 -1190,-1214zm13435 -2039c-169,707 -435,1107 -153,1993 181,566 623,1089 1141,1212 944,-1679 -17,-3013 -988,-3205zm1532 9817c1579,142 2488,-763 2485,-2267 -1309,1 -2655,906 -2485,2267zm693 -4611c592,-172 1067,-650 1301,-1178 341,-769 62,-1392 -205,-1993 -460,117 -990,749 -1197,1212 -367,816 -206,1283 101,1959zm-9871 7955c443,-253 873,-961 889,-1676 17,-768 -430,-1330 -820,-1630 -874,748 -1170,2504 -69,3306zm-3466 -9948c514,-106 988,-679 1152,-1216 267,-878 29,-1273 -162,-1986 -578,118 -1088,685 -1281,1233 -293,832 24,1385 291,1969zm9400 4554c-811,765 -423,2807 1033,3165 287,-696 461,-1140 98,-1959 -236,-531 -667,-982 -1131,-1206zm-7733 3173c602,-122 1084,-664 1308,-1188 325,-761 106,-1350 -206,-1982 -477,134 -975,723 -1189,1208 -366,833 -196,1246 87,1962zm-4689 -3387c-5,1509 909,2415 2498,2274 71,-1410 -1123,-2266 -2498,-2274zm16372 -87c1322,27 2362,-1258 1952,-2710 -608,5 -1309,581 -1544,877 -427,539 -545,1016 -408,1833zm-14111 5229c475,1326 1717,1864 3183,1061 -146,-552 -654,-1009 -1213,-1185 -822,-257 -1270,-86 -1970,124zm1241 -3976c1525,-267 2015,-2215 1330,-3045 -724,151 -2056,1537 -1330,3045zm-3637 -3958c-517,897 295,2739 1919,2711 122,-828 38,-1280 -421,-1829 -301,-361 -815,-774 -1498,-882zm13454 895c-391,437 -365,1440 -79,1976 273,513 738,923 1398,1082 716,-1361 -379,-2743 -1319,-3058zm-604 8038c780,857 2893,393 3156,-966 -655,-484 -2567,-502 -3156,966zm-1121 -3850c-1426,955 -696,3155 157,3306 339,-445 687,-854 609,-1735 -60,-682 -390,-1281 -766,-1571zm36 4302c206,-182 346,-304 544,-494 982,-941 1932,-2189 2620,-3449 859,-1573 1647,-4725 643,-6557 -64,27 -188,75 -251,111l-204 162c278,398 408,1456 408,2048 0,1991 -719,3640 -1604,4954 -586,868 -814,1054 -1405,1769 -487,589 -1135,1012 -1589,1555l236 361c313,-95 369,-254 602,-460z"/>
 </g>
</svg>
