<?xml version="1.0" encoding="UTF-8"?>
<!DOCTYPE svg PUBLIC "-//W3C//DTD SVG 1.1//EN" "http://www.w3.org/Graphics/SVG/1.1/DTD/svg11.dtd">
<!-- Creator: CorelDRAW X7 -->
<svg xmlns="http://www.w3.org/2000/svg" xml:space="preserve" width="55.325mm" height="55.325mm" version="1.1" style="shape-rendering:geometricPrecision; text-rendering:geometricPrecision; image-rendering:optimizeQuality; fill-rule:evenodd; clip-rule:evenodd"
viewBox="0 0 18862 18862"
 xmlns:xlink="http://www.w3.org/1999/xlink">
 <defs>
  <style type="text/css">
   <![CDATA[
    .fil1 {fill:none}
    .fil0 {fill:#FEFEFE}
   ]]>
  </style>
 </defs>
 <g id="Слой_x0020_1">
  <metadata id="CorelCorpID_0Corel-Layer"/>
  <path class="fil0" d="M6588 12529c0,-84 29,-146 120,-162 87,-15 123,29 170,76l1802 1820 2065 -2076c102,-101 95,-121 209,-121 33,0 69,28 87,47 104,107 -14,221 -67,274 -58,57 -403,409 -434,430l535 539 878 -881c87,-87 84,-107 188,-107 84,0 133,68 133,161 0,73 -80,133 -121,174l-954 962c-88,88 -169,78 -254,-11l-622 -620c-498,505 -996,1015 -1497,1515 -104,103 -167,122 -277,7l-1854 -1867c-38,-39 -107,-90 -107,-160zm7073 -3274c395,0 714,320 714,714 0,395 -319,714 -714,714 -394,0 -714,-319 -714,-714 0,-394 320,-714 714,-714zm-9120 2644l9815 0 3 4233 -9818 1 0 -4234zm10339 3l2367 3 -4 2617 -2376 -5 13 -2615zm-13268 -4l2422 5 -8 2619 -2411 -5 -3 -2619zm0 -517c38,-1062 3,-2192 3,-3261 0,-556 -16,-949 275,-1341 203,-273 568,-543 1057,-567 1035,-52 2209,-3 3260,-3l8116 0c1130,0 2046,-212 2666,590 272,353 259,859 259,1357 0,1061 -30,2167 2,3235l-15638 -10zm13259 -7335l985 0 -9 1652 -979 -7 3 -1645zm-10330 -1314l9818 -1 -12 2965 -9797 -2 -9 -2571 0 -391zm-1508 1318l1001 9 -7 1638 -998 -5 4 -1642zm1000 -515l-1514 0 0 2175c-22,87 -1408,346 -1414,1984l0 6841c-3,453 1,504 514,504l2416 -1 -5 1122c-1,394 18,493 491,493l9824 -12c423,0 531,-147 526,-481 -4,-372 -6,-746 -3,-1118l2529 -5c353,-1 363,-101 360,-502l0 -6805c-1,-521 -160,-1000 -401,-1295 -352,-433 -684,-585 -994,-725l0 -2175 -1491 0c-36,-909 160,-1310 -369,-1315 -3318,-30 -6730,14 -10068,1 -537,-2 -395,311 -401,1314zm11512 5720c394,0 714,320 714,714 0,395 -320,714 -714,714 -394,0 -714,-319 -714,-714 0,-394 320,-714 714,-714zm0 429c158,0 285,128 285,285 0,158 -127,286 -285,286 -158,0 -285,-128 -285,-286 0,-157 127,-285 285,-285zm-1884 0c158,0 286,128 286,285 0,158 -128,286 -286,286 -157,0 -285,-128 -285,-286 0,-157 128,-285 285,-285zm-3343 6302c334,0 605,-270 605,-604 0,-334 -271,-605 -605,-605 -334,0 -604,271 -604,605 0,334 270,604 604,604zm0 -289c174,0 315,-141 315,-315 0,-174 -141,-315 -315,-315 -174,0 -315,141 -315,315 0,174 141,315 315,315z"/>
  <rect class="fil1" width="18862" height="18862"/>
 </g>
</svg>
